<?xml version="1.0" encoding="UTF-8"?>
<svg version="1.1" xmlns="http://www.w3.org/2000/svg" width="408" height="612">
<path d="M0 0 C6.82791159 1.91762623 13.54049826 4.04708492 20 7 C20.86286621 7.37552002 21.72573242 7.75104004 22.61474609 8.13793945 C25 10 25 10 25.56762695 13.09448242 C25.54144287 14.33560791 25.51525879 15.5767334 25.48828125 16.85546875 C25.48120651 17.51710526 25.47413177 18.17874176 25.46684265 18.86042786 C25.43888507 20.97060985 25.37615847 23.0781226 25.3125 25.1875 C25.28741824 26.61910225 25.26460483 28.05074617 25.24414062 29.48242188 C25.18905847 32.9891465 25.10278289 36.49431271 25 40 C25.60884033 39.97905273 26.21768066 39.95810547 26.8449707 39.93652344 C49.53376928 39.25828483 49.53376928 39.25828483 58 44 C58.64582031 44.33902344 59.29164063 44.67804688 59.95703125 45.02734375 C68.76035481 50.41674227 73.29813529 60.42471024 76 70 C78.61445595 82.20079441 78.09092628 99.41470101 71.1875 110.25 C68.50431643 113.66615078 65.57426055 116.53205819 62 119 C61.21882813 119.56589844 60.43765625 120.13179688 59.6328125 120.71484375 C42.24043737 132.63744293 21.25077393 132.11434995 1 130 C-0.90859166 128.09140834 -0.18399854 124.58226074 -0.20532227 121.98144531 C-0.2152162 121.24324869 -0.22511013 120.50505207 -0.23530388 119.74448586 C-0.2671441 117.27239894 -0.29182031 114.80029393 -0.31640625 112.328125 C-0.33711616 110.5891984 -0.35820552 108.85027629 -0.37965393 107.11135864 C-0.43563528 102.45257899 -0.48502068 97.79375198 -0.53263092 93.13488007 C-0.56235845 90.2636716 -0.59373047 87.39248591 -0.62567139 84.52130127 C-0.87038393 62.47318302 -1.09609422 40.42461577 -1.125 18.375 C-1.1275882 17.44997681 -1.13017639 16.52495361 -1.13284302 15.57189941 C-1.13851938 13.05570241 -1.1372575 10.53963429 -1.1328125 8.0234375 C-1.13479141 7.30777618 -1.13677032 6.59211487 -1.1388092 5.85476685 C-1.11566179 1.11566179 -1.11566179 1.11566179 0 0 Z M28 69 C25.51639559 72.72540662 25.7684133 74.63062973 25.8046875 79.07421875 C25.8075174 79.7580513 25.81034729 80.44188385 25.81326294 81.1464386 C25.82444316 83.32697165 25.84954309 85.50709145 25.875 87.6875 C25.88503262 89.16731177 25.89415798 90.64712999 25.90234375 92.12695312 C25.92437519 95.751436 25.95888998 99.37567766 26 103 C31.06104762 105.64945182 35.70132453 106.02032844 41.22265625 104.3125 C46.00298032 102.16805556 48.49330377 99.71258891 51 95 C53.48584378 87.54246867 52.9114843 77.99256217 49.9609375 70.7109375 C48.35424366 67.85023872 47.13593302 67.00082969 44 66 C37.99911287 65.30758995 33.14488194 65.52720469 28 69 Z " fill="#252524" transform="translate(188,176)"/>
<path d="M0 0 C0.81533203 -0.00773438 1.63066406 -0.01546875 2.47070312 -0.0234375 C11.29759233 0.00510539 11.29759233 0.00510539 15.3125 2.25 C17.71141704 7.53164929 17.4517726 12.48998698 17 18.125 C16.95166016 18.89585937 16.90332031 19.66671875 16.85351562 20.4609375 C16.4612775 26.1012225 16.4612775 26.1012225 15.3125 27.25 C13.30035637 27.12741142 11.28834509 26.99779109 9.27954102 26.82910156 C-2.691036 25.63127993 -2.691036 25.63127993 -13.3046875 30.6015625 C-17.24540937 35.29925919 -18.20671659 42.0134792 -17.9765625 47.9765625 C-17.36359356 52.79748039 -16.22501498 57.41680906 -13.0625 61.1875 C-3.69050475 65.38023472 5.47490075 64.11116743 15.3125 62.25 C18.01184365 67.20225739 17.3963885 71.99822339 17.0625 77.4375 C17.00255859 78.80938477 17.00255859 78.80938477 16.94140625 80.20898438 C16.57099556 86.99150444 16.57099556 86.99150444 14.3125 89.25 C0.07768172 92.44767657 -16.12207011 90.49069405 -28.75 83.0625 C-37.7088571 76.7670869 -43.75880181 67.57315938 -45.9375 56.875 C-48.02151299 43.16932895 -46.62313874 27.98726672 -38.6875 16.25 C-29.18246174 3.93765974 -14.94584519 -0.14382529 0 0 Z " fill="#171716" transform="translate(165.6875,216.75)"/>
<path d="M0 0 C4.97871275 0.80301819 9.03407253 2.34469084 14 4 C14 13.9 14 23.8 14 34 C17.403125 33.9175 20.80625 33.835 24.3125 33.75 C32.52823065 33.67848047 39.67209498 33.87636341 47 38 C47.65742188 38.36222656 48.31484375 38.72445312 48.9921875 39.09765625 C54.26073706 42.43289685 59.1327598 47.32564019 60.59375 53.515625 C60.84002361 55.69104188 60.98986914 57.81173502 61 60 C58.44765282 57.54774487 56.68581342 55.13079636 55 52 C55 51.34 55 50.68 55 50 C53.68 49.67 52.36 49.34 51 49 C50.9071875 48.1028125 50.9071875 48.1028125 50.8125 47.1875 C49.61675982 43.96819952 48.08580862 43.51141647 45 42 C44.29617187 41.64550781 43.59234375 41.29101562 42.8671875 40.92578125 C32.33637059 36.10056771 22.36358997 38.05303417 11 39 C11 28.11 11 17.22 11 6 C8.03 5.01 5.06 4.02 2 3 C2 2.34 2 1.68 2 1 C1.34 0.67 0.68 0.34 0 0 Z " fill="#3E3E3E" transform="translate(199,182)"/>
<path d="M0 0 C1.67542976 0.28604898 3.34385343 0.61781233 5 1 C4.34 1.66 3.68 2.32 3 3 C2.8121925 5.52976535 2.74808094 7.94907405 2.77294922 10.47900391 C2.77265717 11.24982803 2.77236511 12.02065216 2.77206421 12.81483459 C2.77346026 15.36885745 2.78903421 17.92259046 2.8046875 20.4765625 C2.80841666 22.24490194 2.81126409 24.01324345 2.81326294 25.78158569 C2.82090707 30.44069095 2.84056222 35.09967194 2.8626709 39.75872803 C2.88311256 44.51100992 2.89226106 49.26331184 2.90234375 54.015625 C2.92380741 63.34380466 2.95795272 72.67189201 3 82 C2.67 82 2.34 82 2 82 C1.67 97.51 1.34 113.02 1 129 C0.67 129 0.34 129 0 129 C-1.09806187 46.61932029 -1.09806187 46.61932029 -1.125 18.375 C-1.12749756 17.45006744 -1.12999512 16.52513489 -1.13256836 15.57217407 C-1.13827339 13.05588671 -1.13710978 10.53972503 -1.1328125 8.0234375 C-1.13479645 7.30777115 -1.1367804 6.5921048 -1.13882446 5.85475159 C-1.11563931 1.11563931 -1.11563931 1.11563931 0 0 Z " fill="#0E0E0D" transform="translate(188,176)"/>
<path d="M0 0 C0.99 0 1.98 0 3 0 C2.1348687 5.96322645 -0.61475525 9.01808044 -5 13 C-24.26031052 27.30246778 -45.17348601 26.77266835 -68 25 C-67.67 23.02 -67.34 21.04 -67 19 C-66.34 19.66 -65.68 20.32 -65 21 C-61.85967776 21.312761 -61.85967776 21.312761 -58.15625 21.265625 C-57.13065979 21.26849518 -57.13065979 21.26849518 -56.08435059 21.27142334 C-54.63175083 21.27278616 -53.17913895 21.26908295 -51.7265625 21.26074219 C-49.53616736 21.25017449 -47.34661729 21.26056464 -45.15625 21.2734375 C-35.51314966 21.28403583 -26.45279303 20.79911383 -17.5 16.875 C-13.17518248 15 -13.17518248 15 -11 15 C-11 14.34 -11 13.68 -11 13 C-9.55351125 11.85626471 -8.10648483 10.71320035 -6.65625 9.57421875 C-4.21643867 7.25524713 -2.76028278 4.51997589 -1.17578125 1.57421875 C-0.78777344 1.05472656 -0.39976562 0.53523438 0 0 Z " fill="#0B0B0A" transform="translate(257,281)"/>
<path d="M0 0 C0.81533203 -0.00773438 1.63066406 -0.01546875 2.47070312 -0.0234375 C3.26798828 -0.02085937 4.06527344 -0.01828125 4.88671875 -0.015625 C5.59401123 -0.01336914 6.30130371 -0.01111328 7.0300293 -0.00878906 C9.3125 0.25 9.3125 0.25 15.3125 2.25 C15.3125 9.84 15.3125 17.43 15.3125 25.25 C12.95891749 22.89641749 13.03378096 22.32031606 12.8984375 19.1171875 C12.84042969 17.90869141 12.84042969 17.90869141 12.78125 16.67578125 C12.7503125 15.83402344 12.719375 14.99226562 12.6875 14.125 C12.62949219 12.85076172 12.62949219 12.85076172 12.5703125 11.55078125 C12.47593506 9.45088316 12.39312414 7.35047109 12.3125 5.25 C-2.48694102 2.95160196 -17.92300877 3.53278647 -30.6875 12.25 C-29.77246875 9.26489806 -29.17821123 7.60898913 -26.62109375 5.73828125 C-25.79738281 5.35027344 -24.97367188 4.96226562 -24.125 4.5625 C-23.31933594 4.16675781 -22.51367188 3.77101562 -21.68359375 3.36328125 C-14.50269231 0.69501931 -7.62289669 -0.07335586 0 0 Z " fill="#3D3D3C" transform="translate(165.6875,216.75)"/>
<path d="M0 0 C0.33 0 0.66 0 1 0 C1.33 5.94 1.66 11.88 2 18 C2.66 18 3.32 18 4 18 C4.4125 18.763125 4.825 19.52625 5.25 20.3125 C7.54259824 23.83327587 9.0193725 24.6032886 13 26 C21.07204454 27.4279494 28.04222765 26.78002803 36 25 C36 32.26 36 39.52 36 47 C35.67 47 35.34 47 35 47 C35 40.73 35 34.46 35 28 C33.02 28.66 31.04 29.32 29 30 C21.35367573 31.1248354 12.23137893 31.59334802 5.5625 27.3125 C1.51946918 23.94990098 -1.24470727 20.28704908 -2 15 C-2.07209892 12.32718993 -2.04458378 9.6750267 -2 7 C-1.67 7 -1.34 7 -1 7 C-0.67 4.69 -0.34 2.38 0 0 Z " fill="#181817" transform="translate(145,254)"/>
<path d="M0 0 C0.66 0.66 1.32 1.32 2 2 C1.06027344 2.09087891 1.06027344 2.09087891 0.1015625 2.18359375 C-0.71570313 2.26738281 -1.53296875 2.35117188 -2.375 2.4375 C-3.18710938 2.51871094 -3.99921875 2.59992188 -4.8359375 2.68359375 C-7.04272805 2.89090114 -7.04272805 2.89090114 -9 4 C-3.72 4 1.56 4 7 4 C7.33 4.66 7.66 5.32 8 6 C7.13117188 5.96519531 6.26234375 5.93039063 5.3671875 5.89453125 C-3.28298129 5.5148835 -3.28298129 5.5148835 -11 9 C-12.47905238 11.95810476 -12.12190903 14.9547155 -12.09765625 18.1953125 C-12.0962413 18.90275604 -12.09482635 19.61019958 -12.09336853 20.33908081 C-12.087766 22.60109669 -12.07521318 24.86301398 -12.0625 27.125 C-12.05748532 28.65755065 -12.05292236 30.19010286 -12.04882812 31.72265625 C-12.03779577 35.48180888 -12.02052952 39.24088772 -12 43 C-13.485 43.495 -13.485 43.495 -15 44 C-15.33 30.8 -15.66 17.6 -16 4 C-6.62857143 -0.68571429 -6.62857143 -0.68571429 0 0 Z " fill="#0E0E0E" transform="translate(227,237)"/>
<path d="M0 0 C2.43775269 3.65662904 2.34686544 6.49415429 2.4140625 10.73046875 C2.43342865 11.48088943 2.4527948 12.23131012 2.4727478 13.00447083 C2.53247459 15.39869867 2.57890065 17.79297477 2.625 20.1875 C2.6631862 21.8118698 2.70223831 23.43621948 2.7421875 25.06054688 C2.83817025 29.04020105 2.92222636 33.01995001 3 37 C9.19092249 39.06364083 16.55393334 38.92781839 22.625 36.625 C23.40875 36.08875 24.1925 35.5525 25 35 C25.99 34.34 26.98 33.68 28 33 C26.78823705 36.76992919 24.49266355 38.30275869 21.10131836 40.17089844 C17.31573495 41.66454794 13.57301363 41.41804731 9.5625 41.25 C8.32209961 41.22292969 8.32209961 41.22292969 7.05664062 41.1953125 C5.03725067 41.1486214 3.01846555 41.07689393 1 41 C-0.16661952 36.83595236 -0.12576063 32.8101932 -0.09765625 28.515625 C-0.0962413 27.70003113 -0.09482635 26.88443726 -0.09336853 26.04412842 C-0.08778303 23.44604788 -0.07523321 20.84805437 -0.0625 18.25 C-0.05748312 16.48567833 -0.05292054 14.72135531 -0.04882812 12.95703125 C-0.03781835 8.63798744 -0.02056369 4.31900846 0 0 Z " fill="#383837" transform="translate(210,243)"/>
<path d="M0 0 C2.15473199 1.5801368 4.10646634 3.10646634 6 5 C6.19977141 7.81148881 6.27816772 10.50276969 6.25 13.3125 C6.25773437 14.07240234 6.26546875 14.83230469 6.2734375 15.61523438 C6.25868877 19.85918105 5.94741433 23.12835484 4 27 C3.34 27 2.68 27 2 27 C1.773125 27.7425 1.54625 28.485 1.3125 29.25 C-0.266155 32.55765809 -1.99614099 33.94858409 -5 36 C-8.42232972 37.14077657 -11.08673217 37.09815117 -14.6875 37.0625 C-16.45673828 37.04896484 -16.45673828 37.04896484 -18.26171875 37.03515625 C-19.16535156 37.02355469 -20.06898438 37.01195312 -21 37 C-21.33 36.34 -21.66 35.68 -22 35 C-21.2265625 35.04640625 -20.453125 35.0928125 -19.65625 35.140625 C-12.99421001 35.37148777 -7.29404381 35.4541234 -2 31 C2.72462397 25.65795358 2.46389551 19.23880509 2.2734375 12.43359375 C1.9287688 8.10553961 1.15356547 4.18167483 0 0 Z " fill="#0F0F0E" transform="translate(237,245)"/>
<path d="M0 0 C1.03930664 0.01353516 1.03930664 0.01353516 2.09960938 0.02734375 C3.79572395 0.05073843 5.49165871 0.08660359 7.1875 0.125 C7.1875 0.455 7.1875 0.785 7.1875 1.125 C6.29546875 1.18558594 5.4034375 1.24617187 4.484375 1.30859375 C2.72867188 1.43427734 2.72867188 1.43427734 0.9375 1.5625 C-0.22265625 1.64371094 -1.3828125 1.72492188 -2.578125 1.80859375 C-5.12227376 2.05747787 -7.37203248 2.40614942 -9.8125 3.125 C-9.1525 3.785 -8.4925 4.445 -7.8125 5.125 C-8.740625 5.49625 -9.66875 5.8675 -10.625 6.25 C-14.41744782 8.48085166 -15.26967027 10.06492176 -16.8125 14.125 C-17.86776986 18.26657279 -17.91484966 22.17358618 -17.875 26.4375 C-17.86597656 27.69175781 -17.85695312 28.94601562 -17.84765625 30.23828125 C-17.83605469 31.19089844 -17.82445312 32.14351563 -17.8125 33.125 C-19.8125 31.125 -19.8125 31.125 -19.97265625 27.31640625 C-19.95002167 25.77326015 -19.91703997 24.2302394 -19.875 22.6875 C-19.65182588 16.82855891 -19.65182588 16.82855891 -20.8125 11.125 C-18.59242635 6.31484042 -15.32769153 3.40291598 -10.63671875 1.01953125 C-7.05843943 -0.113838 -3.7077541 -0.09225034 0 0 Z " fill="#090909" transform="translate(165.8125,238.875)"/>
<path d="M0 0 C0.70125 0.7425 1.4025 1.485 2.125 2.25 C8.03498935 7.9030333 12.56905386 10.14361651 20.6875 10.1875 C22.45673828 10.20876953 22.45673828 10.20876953 24.26171875 10.23046875 C28.76617222 10.06682735 28.76617222 10.06682735 36 8 C36 14.93 36 21.86 36 29 C35.67 29 35.34 29 35 29 C35 22.73 35 16.46 35 10 C33.02 10.66 31.04 11.32 29 12 C21.267785 13.13747061 12.19964612 13.59199819 5.5 9.1875 C3.05805129 7.22521978 1.7682671 5.65240064 0 3 C0 2.01 0 1.02 0 0 Z " fill="#4B4B4A" transform="translate(145,272)"/>
<path d="M0 0 C0.66 0.66 1.32 1.32 2 2 C0.99839844 2.24234375 -0.00320312 2.4846875 -1.03515625 2.734375 C-10.98670936 5.21446129 -10.98670936 5.21446129 -20 10 C-19.06832947 6.88047394 -18.47969609 5.33094016 -15.7578125 3.453125 C-14.88898438 3.05609375 -14.02015625 2.6590625 -13.125 2.25 C-12.26132813 1.84265625 -11.39765625 1.4353125 -10.5078125 1.015625 C-6.6464788 -0.548155 -4.00989042 -1.47029315 0 0 Z " fill="#262626" transform="translate(155,219)"/>
<path d="M0 0 C2.68319586 2.68319586 2.32324237 4.25273816 2.5 8 C2.85594589 13.81809735 3.68124147 19.32805798 5 25 C4.01 24.67 3.02 24.34 2 24 C-0.64750583 16.77655818 -1.85258562 8.67327062 -1 1 C-0.67 0.67 -0.34 0.34 0 0 Z " fill="#191918" transform="translate(120,257)"/>
<path d="M0 0 C4.58960475 0.69539466 7.45087033 2.050373 12 4 C12 14.89 12 25.78 12 37 C12.99 37.33 13.98 37.66 15 38 C13.02 38.495 13.02 38.495 11 39 C11 28.11 11 17.22 11 6 C8.03 5.01 5.06 4.02 2 3 C2 2.34 2 1.68 2 1 C1.34 0.67 0.68 0.34 0 0 Z " fill="#747474" transform="translate(199,182)"/>
<path d="M0 0 C0.78632813 -0.00773438 1.57265625 -0.01546875 2.3828125 -0.0234375 C7.37915245 -0.00683836 11.51367009 0.65433805 16.25 2.25 C16.25 2.58 16.25 2.91 16.25 3.25 C2.39 2.755 2.39 2.755 -11.75 2.25 C-7.84229062 -0.35513959 -4.52770921 -0.04367565 0 0 Z " fill="#5E5E5E" transform="translate(163.75,217.75)"/>
<path d="M0 0 C4.22460725 3.66873787 5.9772021 6.47689134 7 12 C6.67 12.99 6.34 13.98 6 15 C5.16121545 13.71186658 4.32913217 12.41936744 3.5 11.125 C3.0359375 10.40570313 2.571875 9.68640625 2.09375 8.9453125 C1 7 1 7 1 5 C-0.32 4.67 -1.64 4.34 -3 4 C-3 3.34 -3 2.68 -3 2 C-2.01 2 -1.02 2 0 2 C0 1.34 0 0.68 0 0 Z " fill="#494949" transform="translate(253,227)"/>
<path d="M0 0 C1.65 0 3.3 0 5 0 C5 0.66 5 1.32 5 2 C5.99 2.33 6.98 2.66 8 3 C6.7934375 3.61875 6.7934375 3.61875 5.5625 4.25 C1.58219835 8.52154323 2.09765275 13.35389564 2 19 C1.67 19 1.34 19 1 19 C0.67 12.73 0.34 6.46 0 0 Z " fill="#2C2C2C" transform="translate(190,178)"/>
<path d="M0 0 C0.33 0 0.66 0 1 0 C1.06058594 1.09699219 1.12117187 2.19398438 1.18359375 3.32421875 C1.26804498 4.77865654 1.35269066 6.23308305 1.4375 7.6875 C1.47681641 8.40873047 1.51613281 9.12996094 1.55664062 9.87304688 C1.78185678 13.66707282 2.12839305 17.28651492 3 21 C-0.74622356 19.54984894 -0.74622356 19.54984894 -1.75 17.375 C-2.1155134 13.90262273 -2.05818928 10.49135702 -2 7 C-1.67 7 -1.34 7 -1 7 C-0.67 4.69 -0.34 2.38 0 0 Z " fill="#282828" transform="translate(145,254)"/>
<path d="M0 0 C0.99 0 1.98 0 3 0 C2.67566492 5.35152885 -0.49704824 8.28280043 -4 12 C-4.66 11.67 -5.32 11.34 -6 11 C-5.18993474 9.35296694 -4.3768779 7.70740494 -3.5625 6.0625 C-3.11003906 5.14597656 -2.65757812 4.22945313 -2.19140625 3.28515625 C-1 1 -1 1 0 0 Z " fill="#151514" transform="translate(257,281)"/>
<path d="M0 0 C0.99 0.33 1.98 0.66 3 1 C0.75900431 2.22835325 -1.4901378 3.43229495 -3.75 4.625 C-4.70132813 5.1509375 -4.70132813 5.1509375 -5.671875 5.6875 C-7.546875 6.6640625 -7.546875 6.6640625 -11 8 C-13.453125 7.2109375 -13.453125 7.2109375 -15 6 C-15 5.67 -15 5.34 -15 5 C-14.08476562 4.72285156 -13.16953125 4.44570313 -12.2265625 4.16015625 C-11.03804687 3.79792969 -9.84953125 3.43570312 -8.625 3.0625 C-7.44164062 2.70285156 -6.25828125 2.34320313 -5.0390625 1.97265625 C-2.12073182 1.12423726 -2.12073182 1.12423726 0 0 Z " fill="#4F4F4F" transform="translate(197,342)"/>
<path d="M0 0 C2.15473199 1.5801368 4.10646634 3.10646634 6 5 C6.46376812 12.30434783 6.46376812 12.30434783 4 16 C4 13.69 4 11.38 4 9 C3.34 9 2.68 9 2 9 C1.34 6.03 0.68 3.06 0 0 Z " fill="#181816" transform="translate(237,245)"/>
<path d="M0 0 C3.40312738 1.05875074 6.01353231 2.00902154 9 4 C9.6875 6.625 9.6875 6.625 10 9 C7.07909997 7.69063102 5.24380538 6.24380538 3 4 C2.01 3.67 1.02 3.34 0 3 C0 2.01 0 1.02 0 0 Z " fill="#616161" transform="translate(244,221)"/>
<path d="M0 0 C0.99 0 1.98 0 3 0 C2.34 3.96 1.68 7.92 1 12 C0.01 12 -0.98 12 -2 12 C-1 3.42857143 -1 3.42857143 0 0 Z " fill="#0D0D0B" transform="translate(122,243)"/>
<path d="M0 0 C0.66 0 1.32 0 2 0 C1.34 4.29 0.68 8.58 0 13 C-2.32536063 9.51195905 -2.33457898 8.09859246 -2 4 C-1 1.625 -1 1.625 0 0 Z " fill="#6D6D6D" transform="translate(262,268)"/>
<path d="M0 0 C0.33 0.66 0.66 1.32 1 2 C1.66 2.33 2.32 2.66 3 3 C-1.95 3.33 -6.9 3.66 -12 4 C-8.8388984 0.8388984 -8.4438418 0.61187259 -4.3125 0.3125 C-3.10013672 0.21388672 -3.10013672 0.21388672 -1.86328125 0.11328125 C-0.94095703 0.05720703 -0.94095703 0.05720703 0 0 Z " fill="#191918" transform="translate(229,238)"/>
<path d="M0 0 C0.33 0 0.66 0 1 0 C1 5.94 1 11.88 1 18 C2.98 17.67 4.96 17.34 7 17 C4 19 4 19 1 19 C0.67 19.66 0.34 20.32 0 21 C-0.9584336 18.12469919 -1.06656387 16.70950069 -0.87890625 13.76953125 C-0.83056641 12.96708984 -0.78222656 12.16464844 -0.73242188 11.33789062 C-0.67634766 10.50451172 -0.62027344 9.67113281 -0.5625 8.8125 C-0.48418945 7.5450293 -0.48418945 7.5450293 -0.40429688 6.25195312 C-0.27476311 4.16763701 -0.13806823 2.08376818 0 0 Z " fill="#3A3A3A" transform="translate(209,203)"/>
<path d="M0 0 C1.69433918 3.0469629 2.49467112 5.82821466 3.125 9.25 C3.29257813 10.14203125 3.46015625 11.0340625 3.6328125 11.953125 C3.75398438 12.62859375 3.87515625 13.3040625 4 14 C3.01 13.67 2.02 13.34 1 13 C-0.32229189 10.35541621 -0.09677194 8.32238699 -0.0625 5.375 C-0.05347656 4.37210937 -0.04445313 3.36921875 -0.03515625 2.3359375 C-0.02355469 1.56507813 -0.01195313 0.79421875 0 0 Z " fill="#2E2E2E" transform="translate(121,268)"/>
<path d="M0 0 C0.66 0.33 1.32 0.66 2 1 C1.67 1.66 1.34 2.32 1 3 C1.66 3.33 2.32 3.66 3 4 C-2.75 7.875 -2.75 7.875 -5 9 C-4.5206753 4.68607774 -3.2542015 2.83430453 0 0 Z " fill="#232323" transform="translate(135,225)"/>
<path d="M0 0 C0.66 0.66 1.32 1.32 2 2 C-1.63 2.33 -5.26 2.66 -9 3 C-8.67 2.01 -8.34 1.02 -8 0 C-5.06692502 -1.2136862 -2.95460646 -1.0833557 0 0 Z " fill="#404040" transform="translate(155,219)"/>
<path d="M0 0 C2 2 2 2 2.1953125 4.3828125 C2.17210937 5.28773438 2.14890625 6.19265625 2.125 7.125 C2.10695313 8.03507813 2.08890625 8.94515625 2.0703125 9.8828125 C2.03550781 10.93082031 2.03550781 10.93082031 2 12 C-0.37555161 9.62444839 -0.36834858 8.69703006 -0.6875 5.4375 C-0.77386719 4.63183594 -0.86023438 3.82617188 -0.94921875 2.99609375 C-0.96597656 2.33738281 -0.98273438 1.67867187 -1 1 C-0.67 0.67 -0.34 0.34 0 0 Z " fill="#3C3C3A" transform="translate(261,244)"/>
<path d="M0 0 C3.8063457 0.67170806 7.35206816 1.72746564 11 3 C11 3.99 11 4.98 11 6 C8.03 5.01 5.06 4.02 2 3 C2 2.34 2 1.68 2 1 C1.34 0.67 0.68 0.34 0 0 Z " fill="#5F5F5F" transform="translate(199,182)"/>
<path d="M0 0 C2.3129482 2.3129482 2.49580975 3.47904875 3.125 6.625 C3.29257812 7.44226563 3.46015625 8.25953125 3.6328125 9.1015625 C3.81457031 10.04128906 3.81457031 10.04128906 4 11 C2.68 10.67 1.36 10.34 0 10 C0 6.7 0 3.4 0 0 Z " fill="#2B2B29" transform="translate(259,235)"/>
<path d="M0 0 C2.4375 0.375 2.4375 0.375 5 1 C5.33 1.66 5.66 2.32 6 3 C4.02 3.99 2.04 4.98 0 6 C0 4.02 0 2.04 0 0 Z " fill="#4A4A4A" transform="translate(192,179)"/>
<path d="M0 0 C0.66 0.33 1.32 0.66 2 1 C-2.455 3.97 -2.455 3.97 -7 7 C-7 6.01 -7 5.02 -7 4 C-1.7265625 0.77734375 -1.7265625 0.77734375 0 0 Z " fill="#444444" transform="translate(143,222)"/>
<path d="M0 0 C-1.485 1.485 -1.485 1.485 -3 3 C-5.475 2.01 -5.475 2.01 -8 1 C-8 0.67 -8 0.34 -8 0 C-4.71303767 -0.79953138 -3.28976808 -1.09658936 0 0 Z " fill="#363636" transform="translate(190,347)"/>
<path d="M0 0 C0.66 0 1.32 0 2 0 C2 1.65 2 3.3 2 5 C0.68 4.34 -0.64 3.68 -2 3 C-1.34 2.01 -0.68 1.02 0 0 Z " fill="#242424" transform="translate(185,374)"/>
<path d="" fill="#000000" transform="translate(0,0)"/>
<path d="" fill="#000000" transform="translate(0,0)"/>
<path d="" fill="#000000" transform="translate(0,0)"/>
<path d="" fill="#000000" transform="translate(0,0)"/>
<path d="" fill="#000000" transform="translate(0,0)"/>
<path d="" fill="#000000" transform="translate(0,0)"/>
<path d="" fill="#000000" transform="translate(0,0)"/>
<path d="" fill="#000000" transform="translate(0,0)"/>
<path d="" fill="#000000" transform="translate(0,0)"/>
<path d="" fill="#000000" transform="translate(0,0)"/>
<path d="" fill="#000000" transform="translate(0,0)"/>
<path d="" fill="#000000" transform="translate(0,0)"/>
<path d="" fill="#000000" transform="translate(0,0)"/>
<path d="" fill="#000000" transform="translate(0,0)"/>
<path d="" fill="#000000" transform="translate(0,0)"/>
<path d="" fill="#000000" transform="translate(0,0)"/>
<path d="" fill="#000000" transform="translate(0,0)"/>
<path d="" fill="#000000" transform="translate(0,0)"/>
<path d="" fill="#000000" transform="translate(0,0)"/>
<path d="" fill="#000000" transform="translate(0,0)"/>
<path d="" fill="#000000" transform="translate(0,0)"/>
<path d="" fill="#000000" transform="translate(0,0)"/>
<path d="" fill="#000000" transform="translate(0,0)"/>
<path d="" fill="#000000" transform="translate(0,0)"/>
<path d="" fill="#000000" transform="translate(0,0)"/>
<path d="" fill="#000000" transform="translate(0,0)"/>
<path d="" fill="#000000" transform="translate(0,0)"/>
<path d="" fill="#000000" transform="translate(0,0)"/>
<path d="" fill="#000000" transform="translate(0,0)"/>
<path d="" fill="#000000" transform="translate(0,0)"/>
<path d="" fill="#000000" transform="translate(0,0)"/>
<path d="" fill="#000000" transform="translate(0,0)"/>
<path d="" fill="#000000" transform="translate(0,0)"/>
<path d="" fill="#000000" transform="translate(0,0)"/>
<path d="" fill="#000000" transform="translate(0,0)"/>
<path d="" fill="#000000" transform="translate(0,0)"/>
<path d="" fill="#000000" transform="translate(0,0)"/>
<path d="" fill="#000000" transform="translate(0,0)"/>
<path d="" fill="#000000" transform="translate(0,0)"/>
<path d="" fill="#000000" transform="translate(0,0)"/>
<path d="" fill="#000000" transform="translate(0,0)"/>
<path d="" fill="#000000" transform="translate(0,0)"/>
<path d="" fill="#000000" transform="translate(0,0)"/>
<path d="" fill="#000000" transform="translate(0,0)"/>
<path d="" fill="#010000" transform="translate(0,0)"/>
<path d="" fill="#000000" transform="translate(0,0)"/>
<path d="" fill="#FFFFFF" transform="translate(0,0)"/>
<path d="" fill="#000000" transform="translate(0,0)"/>
<path d="" fill="#808080" transform="translate(0,0)"/>
<path d="" fill="#000000" transform="translate(0,0)"/>
<path d="" fill="#000000" transform="translate(0,0)"/>
<path d="" fill="#000000" transform="translate(0,0)"/>
<path d="" fill="#000000" transform="translate(0,0)"/>
<path d="" fill="#000000" transform="translate(0,0)"/>
<path d="" fill="#000000" transform="translate(0,0)"/>
<path d="" fill="#FFFFFF" transform="translate(0,0)"/>
<path d="" fill="#000000" transform="translate(0,0)"/>
<path d="" fill="#000000" transform="translate(0,0)"/>
<path d="" fill="#FFFFFF" transform="translate(0,0)"/>
<path d="" fill="#FFFFFF" transform="translate(0,0)"/>
<path d="" fill="#000000" transform="translate(0,0)"/>
<path d="" fill="#000000" transform="translate(0,0)"/>
<path d="" fill="#000000" transform="translate(0,0)"/>
<path d="" fill="#000000" transform="translate(0,0)"/>
<path d="" fill="#000000" transform="translate(0,0)"/>
<path d="" fill="#000000" transform="translate(0,0)"/>
<path d="" fill="#FFFFFF" transform="translate(0,0)"/>
<path d="" fill="#000000" transform="translate(0,0)"/>
<path d="" fill="#000000" transform="translate(0,0)"/>
<path d="" fill="#FFFFFF" transform="translate(0,0)"/>
<path d="" fill="#000000" transform="translate(0,0)"/>
<path d="" fill="#000000" transform="translate(0,0)"/>
<path d="" fill="#FFFFFF" transform="translate(0,0)"/>
<path d="" fill="#000000" transform="translate(0,0)"/>
<path d="" fill="#FFFFFF" transform="translate(0,0)"/>
<path d="" fill="#000000" transform="translate(0,0)"/>
<path d="" fill="#FFFFFF" transform="translate(0,0)"/>
<path d="" fill="#000000" transform="translate(0,0)"/>
<path d="" fill="#000000" transform="translate(0,0)"/>
<path d="" fill="#000000" transform="translate(0,0)"/>
<path d="" fill="#000000" transform="translate(0,0)"/>
<path d="" fill="#000000" transform="translate(0,0)"/>
<path d="" fill="#000000" transform="translate(0,0)"/>
<path d="" fill="#000000" transform="translate(0,0)"/>
<path d="" fill="#000000" transform="translate(0,0)"/>
<path d="" fill="#000000" transform="translate(0,0)"/>
<path d="" fill="#000000" transform="translate(0,0)"/>
<path d="" fill="#000000" transform="translate(0,0)"/>
<path d="" fill="#000000" transform="translate(0,0)"/>
<path d="" fill="#000000" transform="translate(0,0)"/>
<path d="" fill="#000000" transform="translate(0,0)"/>
<path d="" fill="#000000" transform="translate(0,0)"/>
<path d="" fill="#000000" transform="translate(0,0)"/>
</svg>
