<svg width="17" height="16" viewBox="0 0 17 16" fill="none" xmlns="http://www.w3.org/2000/svg">
<g clip-path="url(#clip0_7969_61025)">
<path d="M8.81152 16C13.2298 16 16.8115 12.4183 16.8115 8C16.8115 3.58172 13.2298 0 8.81152 0C4.39325 0 0.811523 3.58172 0.811523 8C0.811523 12.4183 4.39325 16 8.81152 16Z" fill="#FF0420"/>
<path d="M6.47982 10.124C6.00302 10.124 5.61262 10.012 5.30862 9.78798C5.00782 9.56078 4.85742 9.23438 4.85742 8.81518C4.85742 8.72558 4.86702 8.61998 4.88622 8.49198C4.93742 8.20398 5.01102 7.85838 5.10702 7.45198C5.37902 6.35118 6.08302 5.80078 7.21582 5.80078C7.52302 5.80078 7.80142 5.85198 8.04462 5.95758C8.28782 6.05678 8.47982 6.21038 8.62062 6.41518C8.76142 6.61678 8.83182 6.85678 8.83182 7.13518C8.83182 7.21838 8.82222 7.32398 8.80302 7.45198C8.74222 7.80718 8.67182 8.15598 8.58542 8.49198C8.44462 9.03918 8.20462 9.45198 7.85902 9.72398C7.51662 9.99278 7.05582 10.124 6.47982 10.124ZM6.56622 9.25998C6.79022 9.25998 6.97902 9.19278 7.13582 9.06158C7.29582 8.93038 7.41102 8.72878 7.47822 8.45358C7.57102 8.07598 7.64142 7.74958 7.68942 7.46798C7.70542 7.38478 7.71502 7.29838 7.71502 7.20878C7.71502 6.84398 7.52622 6.66158 7.14542 6.66158C6.92142 6.66158 6.72942 6.72878 6.56942 6.85998C6.41262 6.99118 6.30062 7.19278 6.23342 7.46798C6.15982 7.73678 6.08942 8.06318 6.01582 8.45358C5.99982 8.53358 5.99022 8.61678 5.99022 8.70638C5.98702 9.07758 6.18222 9.25998 6.56622 9.25998Z" fill="white"/>
<path d="M9.10935 10.0642C9.06455 10.0642 9.03255 10.0514 9.00695 10.0226C8.98775 9.99057 8.98135 9.95538 8.98775 9.91377L9.81655 6.00977C9.82295 5.96497 9.84535 5.92978 9.88375 5.90098C9.91895 5.87218 9.95735 5.85938 9.99895 5.85938H11.5958C12.0406 5.85938 12.3958 5.95218 12.6646 6.13458C12.9366 6.32018 13.0742 6.58578 13.0742 6.93458C13.0742 7.03378 13.0614 7.13938 13.039 7.24818C12.9398 7.70898 12.7382 8.04818 12.431 8.26898C12.1302 8.48978 11.7174 8.59857 11.1926 8.59857H10.383L10.1078 9.91377C10.0982 9.95858 10.079 9.99377 10.0406 10.0226C10.0054 10.0514 9.96695 10.0642 9.92535 10.0642H9.10935ZM11.2342 7.76978C11.4038 7.76978 11.5478 7.72498 11.6726 7.63218C11.8006 7.53938 11.8838 7.40818 11.9254 7.23538C11.9382 7.16818 11.9446 7.10738 11.9446 7.05618C11.9446 6.94098 11.9094 6.85138 11.8422 6.79058C11.775 6.72658 11.6566 6.69458 11.4934 6.69458H10.7734L10.5462 7.76978H11.2342Z" fill="white"/>
</g>
<defs>
<clipPath id="clip0_7969_61025">
<rect width="16" height="16" fill="white" transform="translate(0.811523)"/>
</clipPath>
</defs>
</svg>
