<?xml version="1.0" encoding="UTF-8"?>
<!DOCTYPE svg PUBLIC "-//W3C//DTD SVG 1.1//EN" "http://www.w3.org/Graphics/SVG/1.1/DTD/svg11.dtd">
<svg xmlns="http://www.w3.org/2000/svg" version="1.1" width="400px" height="400px" style="shape-rendering:geometricPrecision; text-rendering:geometricPrecision; image-rendering:optimizeQuality; fill-rule:evenodd; clip-rule:evenodd" xmlns:xlink="http://www.w3.org/1999/xlink">
<g><path style="opacity:0.985" fill="#feedd9" d="M 399.5,180.5 C 399.5,193.5 399.5,206.5 399.5,219.5C 387.196,304.644 340.529,361.811 259.5,391C 246.233,394.818 232.9,397.652 219.5,399.5C 206.5,399.5 193.5,399.5 180.5,399.5C 99.4123,387.915 43.2457,344.248 12,268.5C -11.7511,194.936 0.582203,128.269 49,68.5C 97.4536,16.2121 157.287,-5.95457 228.5,2C 301.255,14.7715 353.089,54.6048 384,121.5C 391.855,140.591 397.021,160.258 399.5,180.5 Z"/></g>
<g><path style="opacity:1" fill="#1a0803" d="M 290.5,104.5 C 290.832,144.67 290.499,184.67 289.5,224.5C 286.27,223.192 282.936,222.192 279.5,221.5C 278.839,183.069 278.172,144.736 277.5,106.5C 277.439,103.27 275.772,101.437 272.5,101C 225.5,100.333 178.5,100.333 131.5,101C 114.419,105.278 103.252,115.778 98,132.5C 96.1262,144.135 98.4596,154.802 105,164.5C 108.586,168.06 111.919,171.726 115,175.5C 115.27,182.871 111.77,185.371 104.5,183C 82.3315,162.085 78.4982,138.251 93,111.5C 101.601,98.9177 113.435,91.0844 128.5,88C 177.167,87.3333 225.833,87.3333 274.5,88C 283.419,90.0853 288.753,95.5853 290.5,104.5 Z"/></g>
<g><path style="opacity:1" fill="#513f35" d="M 277.5,106.5 C 278.172,144.736 278.839,183.069 279.5,221.5C 277.506,183.515 276.839,145.181 277.5,106.5 Z"/></g>
<g><path style="opacity:1" fill="#a9978b" d="M 290.5,104.5 C 291.831,144.669 291.831,185.002 290.5,225.5C 289.893,225.376 289.56,225.043 289.5,224.5C 290.499,184.67 290.832,144.67 290.5,104.5 Z"/></g>
<g><path style="opacity:1" fill="#1a0703" d="M 159.5,130.5 C 186.835,130.333 214.169,130.5 241.5,131C 245.292,133.053 246.458,136.219 245,140.5C 244.167,141.333 243.333,142.167 242.5,143C 214.835,143.5 187.169,143.667 159.5,143.5C 159.5,139.167 159.5,134.833 159.5,130.5 Z"/></g>
<g><path style="opacity:1" fill="#7f6d5f" d="M 116.5,128.5 C 116.5,132.5 116.5,136.5 116.5,140.5C 119.059,140.198 121.393,140.532 123.5,141.5C 120.833,141.5 118.167,141.5 115.5,141.5C 115.182,136.968 115.515,132.634 116.5,128.5 Z"/></g>
<g><path style="opacity:1" fill="#1a0703" d="M 159.5,161.5 C 191.502,161.333 223.502,161.5 255.5,162C 259.292,164.053 260.458,167.219 259,171.5C 258.167,172.333 257.333,173.167 256.5,174C 224.168,174.5 191.835,174.667 159.5,174.5C 159.5,170.167 159.5,165.833 159.5,161.5 Z"/></g>
<g><path style="opacity:1" fill="#1a0703" d="M 159.5,192.5 C 186.835,192.333 214.169,192.5 241.5,193C 245.292,195.053 246.458,198.219 245,202.5C 244.097,203.701 242.931,204.535 241.5,205C 214.169,205.5 186.835,205.667 159.5,205.5C 159.5,201.167 159.5,196.833 159.5,192.5 Z"/></g>
<g><path style="opacity:1" fill="#1d0d09" d="M 116.5,128.5 C 121.179,128.334 125.845,128.501 130.5,129C 133.333,130.5 135.5,132.667 137,135.5C 137.015,182.559 137.681,229.559 139,276.5C 147.359,292.083 159.859,296.583 176.5,290C 193.086,277.396 194.752,263.062 181.5,247C 175.797,243.044 169.463,241.211 162.5,241.5C 162.5,246.5 162.5,251.5 162.5,256.5C 165.167,256.5 167.833,256.5 170.5,256.5C 170.5,260.833 170.5,265.167 170.5,269.5C 166.486,269.666 162.486,269.499 158.5,269C 153.938,267.373 151.105,264.206 150,259.5C 149.333,252.167 149.333,244.833 150,237.5C 151.5,233.333 154.333,230.5 158.5,229C 197.167,228.333 235.833,228.333 274.5,229C 298.062,235.617 308.562,251.117 306,275.5C 301.757,292.076 291.257,302.242 274.5,306C 235.167,306.667 195.833,306.667 156.5,306C 138.756,302.589 127.923,292.089 124,274.5C 123.5,230.168 123.333,185.835 123.5,141.5C 121.393,140.532 119.059,140.198 116.5,140.5C 116.5,136.5 116.5,132.5 116.5,128.5 Z"/></g>
<g><path style="opacity:1" fill="#eac18d" d="M 206.5,242.5 C 228.167,242.5 249.833,242.5 271.5,242.5C 281.459,243.799 288.126,249.133 291.5,258.5C 291.631,259.239 291.464,259.906 291,260.5C 290.346,259.304 289.846,259.304 289.5,260.5C 291.857,265.707 292.024,271.041 290,276.5C 285.397,280.849 280.897,285.349 276.5,290C 250.875,291.62 225.208,291.953 199.5,291C 198.378,289.387 198.878,288.22 201,287.5C 201.019,284.692 202.019,282.359 204,280.5C 204.832,271.814 204.665,263.147 203.5,254.5C 202.131,251.038 200.464,247.705 198.5,244.5C 201.306,243.832 203.972,243.166 206.5,242.5 Z"/></g>
<g><path style="opacity:1" fill="#b29571" d="M 271.5,242.5 C 249.833,242.5 228.167,242.5 206.5,242.5C 202.629,242.185 198.962,242.518 195.5,243.5C 194.957,243.44 194.624,243.107 194.5,242.5C 220.33,241.171 245.997,241.171 271.5,242.5 Z"/></g>
<g><path style="opacity:1" fill="#cead86" d="M 206.5,242.5 C 203.972,243.166 201.306,243.832 198.5,244.5C 200.464,247.705 202.131,251.038 203.5,254.5C 204.665,263.147 204.832,271.814 204,280.5C 202.019,282.359 201.019,284.692 201,287.5C 198.878,288.22 198.378,289.387 199.5,291C 225.208,291.953 250.875,291.62 276.5,290C 280.897,285.349 285.397,280.849 290,276.5C 292.024,271.041 291.857,265.707 289.5,260.5C 289.846,259.304 290.346,259.304 291,260.5C 291.464,259.906 291.631,259.239 291.5,258.5C 296.139,276.375 289.472,287.875 271.5,293C 245.827,293.833 220.16,293.666 194.5,292.5C 205.915,276.318 206.248,259.985 195.5,243.5C 198.962,242.518 202.629,242.185 206.5,242.5 Z"/></g>
</svg>
