<svg width="14" height="14" viewBox="0 0 14 14" fill="none" xmlns="http://www.w3.org/2000/svg">
<path d="M7.00002 14C8.38449 14 9.73787 13.5895 10.889 12.8203C12.0402 12.0511 12.9374 10.9579 13.4672 9.67879C13.997 8.3997 14.1356 6.99224 13.8655 5.63437C13.5954 4.2765 12.9287 3.02922 11.9498 2.05026C10.9708 1.07129 9.72352 0.404603 8.36565 0.134506C7.00779 -0.13559 5.60032 0.00303296 4.32124 0.532846C3.04215 1.06266 1.9489 1.95987 1.17973 3.11101C0.410564 4.26216 2.11928e-05 5.61553 2.11928e-05 7C-0.00224507 7.91989 0.177268 8.83116 0.528249 9.68147C0.879229 10.5318 1.39476 11.3043 2.04522 11.9548C2.69568 12.6053 3.46826 13.1208 4.31856 13.4718C5.16886 13.8228 6.08013 14.0023 7.00002 14Z" fill="#2775CA"/>
<path d="M8.92506 8.10919C8.92506 7.091 8.31288 6.73782 7.08788 6.5921C6.21224 6.47564 6.03788 6.24209 6.03788 5.83419C6.03788 5.42628 6.32933 5.16282 6.91224 5.16282C7.43788 5.16282 7.72933 5.33782 7.87506 5.77564C7.89071 5.81782 7.91894 5.85418 7.95593 5.87979C7.99292 5.9054 8.03689 5.91902 8.08188 5.91882H8.54833C8.57535 5.91952 8.60222 5.91472 8.62732 5.9047C8.65242 5.89468 8.67522 5.87966 8.69433 5.86055C8.71344 5.84144 8.72846 5.81864 8.73848 5.79354C8.7485 5.76844 8.7533 5.74157 8.7526 5.71455V5.68591C8.69625 5.36979 8.53706 5.08113 8.29978 4.86479C8.06249 4.64845 7.76039 4.51654 7.44042 4.48955V3.78955C7.44042 3.6731 7.3526 3.58591 7.20688 3.55664H6.76906C6.6526 3.55664 6.56542 3.64382 6.53615 3.78955V4.46282C5.6586 4.58246 5.10433 5.16282 5.10433 5.8921C5.10433 6.85491 5.68788 7.23419 6.91288 7.37991C7.72933 7.52564 7.99469 7.69809 7.99469 8.16709C7.99469 8.6361 7.58679 8.95491 7.03251 8.95491C6.27397 8.95491 6.01433 8.63673 5.92397 8.19637C5.91563 8.14717 5.8903 8.10246 5.8524 8.07002C5.81449 8.03758 5.7664 8.01946 5.71651 8.01882H5.21824C5.19125 8.01821 5.16441 8.02308 5.13935 8.03313C5.11429 8.04318 5.09153 8.05821 5.07244 8.0773C5.05335 8.09639 5.03833 8.11915 5.02828 8.14421C5.01823 8.16927 5.01336 8.1961 5.01397 8.2231V8.25237C5.13106 8.98164 5.59751 9.50664 6.56033 9.65237V10.3524C6.56033 10.4688 6.64751 10.5566 6.79324 10.5859H7.23106C7.34751 10.5859 7.43533 10.4981 7.46397 10.3524V9.65237C8.33897 9.50664 8.92251 8.89382 8.92251 8.10664L8.92506 8.10919Z" fill="white"/>
<path d="M5.5121 11.1712C4.67288 10.8634 3.9484 10.3054 3.43659 9.57248C2.92478 8.83961 2.65033 7.96726 2.65033 7.07337C2.65033 6.17947 2.92478 5.30713 3.43659 4.57426C3.9484 3.84139 4.67288 3.28332 5.5121 2.97551C5.5681 2.95129 5.61513 2.91018 5.64662 2.85792C5.67811 2.80567 5.69249 2.74488 5.68774 2.68405V2.27551C5.69167 2.22192 5.67604 2.16872 5.64374 2.12578C5.61145 2.08283 5.56468 2.05306 5.5121 2.04196C5.47105 2.03768 5.4298 2.04805 5.39565 2.07123C4.33382 2.40873 3.40693 3.07536 2.74915 3.97464C2.09137 4.87392 1.73682 5.95919 1.73682 7.07337C1.73682 8.18754 2.09137 9.27281 2.74915 10.1721C3.40693 11.0714 4.33382 11.738 5.39565 12.0755C5.4199 12.0896 5.44714 12.0977 5.47514 12.0993C5.50315 12.1008 5.53112 12.0957 5.55676 12.0843C5.5824 12.0729 5.60498 12.0557 5.62266 12.0339C5.64034 12.0121 5.65261 11.9865 5.65847 11.9591C5.68774 11.9298 5.68774 11.9005 5.68774 11.842V11.4341C5.68774 11.3462 5.59992 11.2298 5.5121 11.1712ZM8.60419 2.07123C8.5799 2.05715 8.55261 2.04902 8.52457 2.04753C8.49652 2.04604 8.46853 2.05122 8.44287 2.06264C8.41722 2.07407 8.39465 2.09142 8.377 2.11327C8.35936 2.13512 8.34715 2.16084 8.34137 2.18832C8.31274 2.21696 8.31274 2.24623 8.31274 2.30478V2.71269C8.31765 2.77151 8.33598 2.82842 8.36632 2.87906C8.39665 2.92969 8.43819 2.9727 8.48774 3.00478C9.32696 3.3126 10.0514 3.87066 10.5632 4.60353C11.0751 5.3364 11.3495 6.20875 11.3495 7.10264C11.3495 7.99654 11.0751 8.86888 10.5632 9.60175C10.0514 10.3346 9.32696 10.8927 8.48774 11.2005C8.4318 11.2247 8.38485 11.2659 8.35347 11.3182C8.32209 11.3704 8.30784 11.4312 8.31274 11.492V11.9005C8.30878 11.954 8.32433 12.0071 8.35649 12.0501C8.38866 12.093 8.43528 12.1228 8.48774 12.1341C8.52879 12.1383 8.57004 12.128 8.60419 12.1048C9.66561 11.7626 10.5912 11.0926 11.2477 10.1912C11.9043 9.28969 12.258 8.20321 12.258 7.08801C12.258 5.9728 11.9043 4.88632 11.2477 3.98486C10.5912 3.0834 9.66561 2.4134 8.60419 2.07123Z" fill="white"/>
</svg>
